<?xml version="1.0" encoding="utf-8"?>
<!-- Generator: Adobe Illustrator 19.1.0, SVG Export Plug-In . SVG Version: 6.00 Build 0)  -->
<svg version="1.1" xmlns="http://www.w3.org/2000/svg" xmlns:xlink="http://www.w3.org/1999/xlink" x="0px" y="0px" width="24px"
	 height="24px" viewBox="0 0 24 24" enable-background="new 0 0 24 24" xml:space="preserve">
<symbol  id="Padding_guide" viewBox="-12 -12 24 24">
	<path opacity="0.3" fill-rule="evenodd" clip-rule="evenodd" fill="#E30613" d="M-12,12v-24h24v24H-12z M9-9H-9V9H9V-9z"/>
</symbol>
<g id="Icon">
	<g>
		<path fill="#FFFFFF" d="M18,9.271c-0.362,0-0.702,0.106-1,0.278V9.078C17,8,16.077,7.124,15,7.124
			c-0.375,0-0.727,0.111-1.032,0.295C13.812,6.487,12.972,5.771,12,5.771s-1.812,0.716-1.967,1.648C9.727,7.235,9.375,7.124,9,7.124
			C7.923,7.124,7,8,7,9.078v0.949C6.957,10.015,6.915,10,6.868,10H6.027C5.177,10,4,11.228,4,12.5v2.531
			C4,16.876,7.164,22,10.776,22h4.661C16.753,22,20,19.819,20,17v-2.954v-0.693v-2.128C20,10.147,19.077,9.271,18,9.271z"/>
		<path d="M18,9.271c-0.362,0-0.702,0.106-1,0.278V9.078C17,8,16.077,7.124,15,7.124c-0.375,0-0.727,0.111-1.032,0.295
			C13.812,6.487,12.972,5.771,12,5.771s-1.812,0.716-1.967,1.648C9.727,7.235,9.375,7.124,9,7.124C7.923,7.124,7,8,7,9.078v0.949
			C6.957,10.015,6.915,10,6.868,10H6.027C5.177,10,4,11.228,4,12.5v2.531C4,16.876,7.164,22,10.776,22h4.661
			C16.753,22,20,19.819,20,17v-2.954v-0.693v-2.128C20,10.147,19.077,9.271,18,9.271z M19,13.353v0.693V17c0,2.157-2.701,4-3.562,4
			h-4.661C7.878,21,5,16.484,5,15.031V12.5C5,12.017,5.486,11,6.027,11h0.841C6.915,11,6.957,10.985,7,10.973v2.925
			c0,0.276,0.224,0.5,0.5,0.5s0.5-0.224,0.5-0.5V9.078c0-0.526,0.474-0.954,1-0.954s1,0.428,1,0.954v0.468v1.353
			c0,0.276,0.224,0.5,0.5,0.5s0.5-0.224,0.5-0.5V9.546V9.078V7.725c0-0.526,0.474-0.954,1-0.954c0.526,0,1,0.428,1,0.954v1.353
			v0.468v1.353c0,0.276,0.224,0.5,0.5,0.5s0.5-0.224,0.5-0.5V9.546V9.078c0-0.526,0.474-0.954,1-0.954s1,0.428,1,0.954v2.147v0.674
			v0.147c0,0.276,0.224,0.5,0.5,0.5s0.5-0.224,0.5-0.5v-0.147v-0.674c0-0.526,0.474-0.954,1-0.954s1,0.428,1,0.954V13.353z"/>
	</g>
</g>
<g id="padding" display="none">
	<g display="inline">
		
			<use xlink:href="#Padding_guide"  width="24" height="24" x="-12" y="-12" transform="matrix(1 0 0 -1 12 12.0087)" overflow="visible"/>
	</g>
</g>
<g id="lable_name" display="none">
	<g id="Layer_4" display="inline">
	</g>
</g>
</svg>
