<?xml version="1.0" encoding="utf-8"?>
<!-- Generator: Adobe Illustrator 19.1.0, SVG Export Plug-In . SVG Version: 6.00 Build 0)  -->
<svg version="1.1" xmlns="http://www.w3.org/2000/svg" xmlns:xlink="http://www.w3.org/1999/xlink" x="0px" y="0px" width="24px"
	 height="24px" viewBox="0 0 24 24" enable-background="new 0 0 24 24" xml:space="preserve">
<symbol  id="Padding_guide" viewBox="-12 -12 24 24">
	<path opacity="0.3" fill-rule="evenodd" clip-rule="evenodd" fill="#E30613" d="M-12,12v-24h24v24H-12z M9-9H-9V9H9V-9z"/>
</symbol>
<g id="Icon">
	<g>
		<path fill="#FFFFFF" d="M17,9.5V6h0.5C17.776,6,18,5.776,18,5.5v-2C18,3.224,17.776,3,17.5,3h-11C6.224,3,6,3.224,6,3.5v2
			C6,5.776,6.224,6,6.5,6H7v3.5c0,0.133,0.053,0.26,0.146,0.354L9.793,12.5l-2.646,2.646C7.053,15.24,7,15.367,7,15.5V19H6.5
			C6.224,19,6,19.224,6,19.5v2C6,21.776,6.224,22,6.5,22h11c0.276,0,0.5-0.224,0.5-0.5v-2c0-0.276-0.224-0.5-0.5-0.5H17v-3.5
			c0-0.133-0.053-0.26-0.146-0.354L14.207,12.5l2.646-2.646C16.947,9.76,17,9.633,17,9.5z"/>
		<path fill="#070606" d="M17,9.5V6h0.5C17.776,6,18,5.776,18,5.5v-2C18,3.224,17.776,3,17.5,3h-11C6.224,3,6,3.224,6,3.5v2
			C6,5.776,6.224,6,6.5,6H7v3.5c0,0.133,0.053,0.26,0.146,0.354L9.793,12.5l-2.646,2.646C7.053,15.24,7,15.367,7,15.5V19H6.5
			C6.224,19,6,19.224,6,19.5v2C6,21.776,6.224,22,6.5,22h11c0.276,0,0.5-0.224,0.5-0.5v-2c0-0.276-0.224-0.5-0.5-0.5H17v-3.5
			c0-0.133-0.053-0.26-0.146-0.354L14.207,12.5l2.646-2.646C16.947,9.76,17,9.633,17,9.5z M17,20v1H7v-1h0.5h9H17z M16,15.707V18h-3
			v-2h-2v2H8v-2.293L10.707,13H11v2h2v-2h0.293L16,15.707z M16,8H8V6h8V8z M7.5,5H7V4h10v1h-0.5H7.5z"/>
	</g>
</g>
<g id="padding" display="none">
	<g display="inline">
		
			<use xlink:href="#Padding_guide"  width="24" height="24" x="-12" y="-12" transform="matrix(1 0 0 -1 12 12.0087)" overflow="visible"/>
	</g>
</g>
<g id="lable_name" display="none">
	<g id="Layer_4" display="inline">
	</g>
</g>
</svg>
