<?xml version="1.0" encoding="utf-8"?>
<!-- Generator: Adobe Illustrator 19.1.0, SVG Export Plug-In . SVG Version: 6.00 Build 0)  -->
<svg version="1.1" xmlns="http://www.w3.org/2000/svg" xmlns:xlink="http://www.w3.org/1999/xlink" x="0px" y="0px" width="24px"
	 height="24px" viewBox="0 0 24 24" enable-background="new 0 0 24 24" xml:space="preserve">
<symbol  id="Padding_guide" viewBox="-12 -12 24 24">
	<path opacity="0.3" fill-rule="evenodd" clip-rule="evenodd" fill="#E30613" d="M-12,12v-24h24v24H-12z M9-9H-9V9H9V-9z"/>
</symbol>
<g id="Icon">
	<g>
		<path fill="#FFFFFF" d="M18.977,9.908c-0.342,0-0.977,0.095-0.977,0.248V9.651c0-1.095-0.927-1.986-2.023-1.986
			C15.635,7.665,15,7.76,15,7.913V7.88c0-1.095-0.928-1.986-2.022-1.986C12.635,5.894,12,5.989,12,6.142V2.986
			C12,1.891,11.095,1,10,1C8.905,1,8,1.891,8,2.986v7.792C7,9.876,5.833,8.851,4.524,9.162c-1.272,0.307-1.485,2.3-1.512,2.697
			c-0.014,0.197,0.079,0.384,0.249,0.485c2.958,1.761,5.102,5.442,5.102,10.138c0,0.289,0.231,0.518,0.52,0.518h9.143
			c0.192,0,0.368-0.1,0.459-0.268c0.089-0.164,2.432-2.998,2.515-6.01c0.001-0.013,0,0,0-0.014v-4.814
			C21,10.798,20.072,9.908,18.977,9.908z"/>
		<path fill="#070606" d="M18.977,9.908c-0.342,0-0.977,0.095-0.977,0.248V9.651c0-1.095-0.927-1.986-2.023-1.986
			C15.635,7.665,15,7.76,15,7.913V7.88c0-1.095-0.928-1.986-2.022-1.986C12.635,5.894,12,5.989,12,6.142V2.986
			C12,1.891,11.095,1,10,1C8.905,1,8,1.891,8,2.986v7.792C7,9.876,5.833,8.851,4.524,9.162c-1.272,0.307-1.485,2.3-1.512,2.697
			c-0.014,0.197,0.079,0.384,0.249,0.485c2.958,1.761,5.102,5.442,5.102,10.138c0,0.289,0.231,0.518,0.52,0.518h9.143
			c0.192,0,0.368-0.1,0.459-0.268c0.089-0.164,2.432-3.011,2.515-6.024c0.001-0.013,0,0.014,0,0v-4.814
			C21,10.798,20.072,9.908,18.977,9.908z M17.707,22H9.396c-0.145-5-2.278-8.35-5.318-10.356c0.096-0.626,0.346-1.379,0.67-1.457
			c1.185-0.288,2.822,1.656,3.301,2.361c0.009,0.014,0.024,0.019,0.034,0.031c0.023,0.028,0.048,0.051,0.077,0.074
			c0.026,0.021,0.051,0.038,0.08,0.053c0.029,0.016,0.059,0.027,0.091,0.036c0.035,0.011,0.068,0.017,0.104,0.021
			c0.016,0.002,0.03,0.009,0.047,0.009c0.017,0,0.032-0.008,0.048-0.01c0.035-0.003,0.068-0.01,0.102-0.021
			c0.035-0.011,0.068-0.024,0.099-0.042c0.014-0.008,0.03-0.009,0.043-0.018c0.013-0.009,0.02-0.023,0.032-0.032
			c0.029-0.024,0.054-0.05,0.078-0.079c0.02-0.025,0.037-0.05,0.052-0.077c0.016-0.03,0.027-0.06,0.037-0.093
			c0.01-0.034,0.015-0.067,0.018-0.103C8.994,12.282,9,12.268,9,12.251V2.986c0-0.519,0.481-0.94,1-0.94s1,0.422,1,0.94V7.88v4.819
			c0,0.289,0.211,0.523,0.5,0.523s0.5-0.234,0.5-0.523V7.88c0-0.519,0.482-0.941,1-0.941s1,0.422,1,0.941v1.771v3.995
			c0,0.289,0.211,0.523,0.5,0.523s0.5-0.234,0.5-0.523V9.651c0-0.519,0.481-0.94,1-0.94s1,0.422,1,0.94v2.243v2.67
			c0,0.289,0.211,0.523,0.5,0.523s0.5-0.234,0.5-0.523v-2.67c0-0.519,0.481-0.941,1-0.941s1,0.422,1,0.941v4.664
			C20,18.902,18.179,21,17.707,22z"/>
	</g>
</g>
<g id="padding" display="none">
	<g display="inline">
		
			<use xlink:href="#Padding_guide"  width="24" height="24" x="-12" y="-12" transform="matrix(1 0 0 -1 12 12.0087)" overflow="visible"/>
	</g>
</g>
<g id="lable_name" display="none">
	<g id="Layer_4" display="inline">
	</g>
</g>
</svg>
