<?xml version="1.0" encoding="utf-8"?>
<!-- Generator: Adobe Illustrator 19.1.0, SVG Export Plug-In . SVG Version: 6.00 Build 0)  -->
<svg version="1.1" xmlns="http://www.w3.org/2000/svg" xmlns:xlink="http://www.w3.org/1999/xlink" x="0px" y="0px" width="24px"
	 height="24px" viewBox="0 0 24 24" enable-background="new 0 0 24 24" xml:space="preserve">
<symbol  id="Padding_guide" viewBox="-12 -12 24 24">
	<path opacity="0.3" fill-rule="evenodd" clip-rule="evenodd" fill="#E30613" d="M-12,12v-24h24v24H-12z M9-9H-9V9H9V-9z"/>
</symbol>
<g id="Icon">
	<g>
		<path fill="#FFFFFF" d="M13.969,22.357c-0.242,0-0.487-0.043-0.721-0.129c-0.507-0.188-0.921-0.564-1.137-1.035l-3.146-6.235
			l-4.469,5.444l0.049-19.43l15.956,12.575l-7.855-0.241l3.12,6.187c0.232,0.504,0.254,1.052,0.068,1.557
			c-0.188,0.506-0.561,0.908-1.05,1.133C14.53,22.298,14.251,22.357,13.969,22.357z"/>
		<path d="M13.969,22.357c-0.242,0-0.487-0.043-0.721-0.129c-0.507-0.188-0.921-0.564-1.137-1.035l-3.146-6.235l-4.469,5.444
			l0.049-19.43l15.956,12.575l-7.855-0.241l3.12,6.187c0.232,0.504,0.254,1.052,0.068,1.557c-0.188,0.506-0.561,0.908-1.05,1.133
			C14.53,22.298,14.251,22.357,13.969,22.357z M9.166,13.136l3.846,7.623c0.114,0.248,0.323,0.435,0.583,0.531
			c0.259,0.096,0.54,0.089,0.771-0.017c0.247-0.114,0.435-0.316,0.529-0.57c0.094-0.254,0.083-0.531-0.03-0.777l-3.87-7.672
			l6.504,0.199L5.539,3.029l-0.035,14.57L9.166,13.136z"/>
	</g>
</g>
<g id="padding" display="none">
	<g display="inline">
		
			<use xlink:href="#Padding_guide"  width="24" height="24" x="-12" y="-12" transform="matrix(1 0 0 -1 12 12)" overflow="visible"/>
	</g>
</g>
<g id="lable_name" display="none">
	<g id="Layer_4" display="inline">
	</g>
</g>
</svg>
