<?xml version="1.0" encoding="utf-8"?>
<!-- Generator: Adobe Illustrator 19.1.0, SVG Export Plug-In . SVG Version: 6.00 Build 0)  -->
<svg version="1.1" xmlns="http://www.w3.org/2000/svg" xmlns:xlink="http://www.w3.org/1999/xlink" x="0px" y="0px" width="24px"
	 height="24px" viewBox="0 0 24 24" enable-background="new 0 0 24 24" xml:space="preserve">
<symbol  id="Padding_guide" viewBox="-12 -12 24 24">
	<path opacity="0.3" fill-rule="evenodd" clip-rule="evenodd" fill="#E30613" d="M-12,12v-24h24v24H-12z M9-9H-9V9H9V-9z"/>
</symbol>
<g id="Icon">
	<g>
		<path fill="#FFFFFF" d="M22,8v9h-3v-3H5v3H2V8h3v3h14V8H22z"/>
		<path d="M22,8v9h-3v-3H5v3H2V8h3v3h14V8H22z M21,16V9h-1v3H4V9H3v7h1v-3h16v3H21z"/>
	</g>
</g>
<g id="padding" display="none">
	<g display="inline">
		
			<use xlink:href="#Padding_guide"  width="24" height="24" x="-12" y="-12" transform="matrix(1 0 0 -1 12 12.0087)" overflow="visible"/>
	</g>
</g>
<g id="lable_name" display="none">
	<g id="Layer_4" display="inline">
	</g>
</g>
</svg>
