<?xml version="1.0" encoding="utf-8"?>
<!-- Generator: Adobe Illustrator 19.1.0, SVG Export Plug-In . SVG Version: 6.00 Build 0)  -->
<svg version="1.1" xmlns="http://www.w3.org/2000/svg" xmlns:xlink="http://www.w3.org/1999/xlink" x="0px" y="0px" width="24px"
	 height="24px" viewBox="0 0 24 24" enable-background="new 0 0 24 24" xml:space="preserve">
<symbol  id="Padding_guide" viewBox="-12 -12 24 24">
	<path opacity="0.3" fill-rule="evenodd" clip-rule="evenodd" fill="#E30613" d="M-12,12v-24h24v24H-12z M9-9H-9V9H9V-9z"/>
</symbol>
<g id="Icon">
	<g>
		<path fill="#FFFFFF" d="M23,9.5V6h0.5C23.776,6,24,5.776,24,5.5v-2C24,3.224,23.776,3,23.5,3h-11C12.224,3,12,3.224,12,3.5v2
			C12,5.776,12.224,6,12.5,6H13v3.5c0,0.133,0.053,0.26,0.146,0.354l2.646,2.646l-2.646,2.646C13.053,15.24,13,15.367,13,15.5V19
			h-0.5c-0.276,0-0.5,0.224-0.5,0.5v2c0,0.276,0.224,0.5,0.5,0.5h11c0.276,0,0.5-0.224,0.5-0.5v-2c0-0.276-0.224-0.5-0.5-0.5H23
			v-3.5c0-0.133-0.053-0.26-0.146-0.354L20.207,12.5l2.646-2.646C22.947,9.76,23,9.633,23,9.5z"/>
		<path fill="#070606" d="M23,9.5V6h0.5C23.776,6,24,5.776,24,5.5v-2C24,3.224,23.776,3,23.5,3h-11C12.224,3,12,3.224,12,3.5v2
			C12,5.776,12.224,6,12.5,6H13v3.5c0,0.133,0.053,0.26,0.146,0.354l2.646,2.646l-2.646,2.646C13.053,15.24,13,15.367,13,15.5V19
			h-0.5c-0.276,0-0.5,0.224-0.5,0.5v2c0,0.276,0.224,0.5,0.5,0.5h11c0.276,0,0.5-0.224,0.5-0.5v-2c0-0.276-0.224-0.5-0.5-0.5H23
			v-3.5c0-0.133-0.053-0.26-0.146-0.354L20.207,12.5l2.646-2.646C22.947,9.76,23,9.633,23,9.5z M23,20v1H13v-1h0.5h9H23z M22,15.707
			V18h-3v-2h-2v2h-3v-2.293L16.707,13H17v2h2v-2h0.293L22,15.707z M22,8h-8V6h8V8z M13.5,5H13V4h10v1h-0.5H13.5z"/>
		<path fill="#FFFFFF" d="M7.621,21c-0.195,0-0.392-0.035-0.58-0.104c-0.408-0.151-0.741-0.454-0.915-0.833l-2.531-5.017L0,19.426
			L0.039,3.794l12.837,10.117l-6.32-0.194l2.51,4.978c0.187,0.406,0.204,0.846,0.055,1.252c-0.151,0.407-0.451,0.731-0.845,0.912
			C8.073,20.952,7.848,21,7.621,21z"/>
		<path d="M7.621,21c-0.195,0-0.392-0.035-0.58-0.104c-0.408-0.151-0.741-0.454-0.915-0.833l-2.531-5.017L0,19.426L0.039,3.794
			l12.837,10.117l-6.32-0.194l2.51,4.978c0.187,0.406,0.204,0.846,0.055,1.252c-0.151,0.407-0.451,0.731-0.845,0.912
			C8.073,20.952,7.848,21,7.621,21z M3.757,13.581l3.094,6.133c0.092,0.199,0.26,0.35,0.469,0.427
			c0.208,0.077,0.434,0.072,0.621-0.013c0.199-0.092,0.35-0.254,0.426-0.459c0.075-0.205,0.067-0.427-0.024-0.625l-3.114-6.172
			l5.233,0.16L0.839,5.449L0.811,17.171L3.757,13.581z"/>
	</g>
</g>
<g id="padding" display="none">
	<g display="inline">
		
			<use xlink:href="#Padding_guide"  width="24" height="24" x="-12" y="-12" transform="matrix(1 0 0 -1 12 12.0087)" overflow="visible"/>
	</g>
</g>
<g id="lable_name" display="none">
	<g id="Layer_4" display="inline">
	</g>
</g>
</svg>
